../results/experiments/subject02/walk3/expdata/ground_reaction.mot
version=1
nRows=49
nColumns=19
inDegrees=no
endheader
time	ground_force_r_vx	ground_force_r_vy	ground_force_r_vz	ground_force_r_px	ground_force_r_py	ground_force_r_pz	ground_force_l_vx	ground_force_l_vy	ground_force_l_vz	ground_force_l_px	ground_force_l_py	ground_force_l_pz	ground_torque_r_x	ground_torque_r_y	ground_torque_r_z	ground_torque_l_x	ground_torque_l_y	ground_torque_l_z
2.808333	0.400855	3.978255	-0.344580	0.000000	0.000000	0.000000	99.644455	813.419067	44.034977	0.731874	0.000000	-0.549202	0.000000	0.000000	0.000000	0.000000	-2.621031	0.000000
2.809375	0.387639	3.972251	-0.371159	0.000000	0.000000	0.000000	100.671165	814.877380	43.840633	0.730599	0.000000	-0.549163	0.000000	0.000000	0.000000	0.000000	-2.632928	0.000000
2.810417	0.367483	3.971087	-0.392760	0.000000	0.000000	0.000000	101.704315	816.275330	43.656879	0.729324	0.000000	-0.549123	0.000000	0.000000	0.000000	0.000000	-2.643518	0.000000
2.811458	0.339832	3.976573	-0.409639	0.000000	0.000000	0.000000	102.743637	817.612305	43.483055	0.728050	0.000000	-0.549081	0.000000	0.000000	0.000000	0.000000	-2.652817	0.000000
2.812500	0.304041	3.990525	-0.422033	0.000000	0.000000	0.000000	103.789146	818.887207	43.318336	0.726777	0.000000	-0.549039	0.000000	0.000000	0.000000	0.000000	-2.660844	0.000000
2.813542	0.259369	4.014785	-0.430145	0.000000	0.000000	0.000000	104.841194	820.098633	43.161755	0.725505	0.000000	-0.548994	0.000000	0.000000	0.000000	0.000000	-2.667620	0.000000
2.814583	0.204984	4.051258	-0.434149	0.000000	0.000000	0.000000	105.900436	821.244812	43.012238	0.724234	0.000000	-0.548949	0.000000	0.000000	0.000000	0.000000	-2.673172	0.000000
2.815625	0.139964	4.101959	-0.434196	0.000000	0.000000	0.000000	106.967781	822.323669	42.868656	0.722964	0.000000	-0.548902	0.000000	0.000000	0.000000	0.000000	-2.677526	0.000000
2.816667	0.063307	4.169066	-0.430439	0.000000	0.000000	0.000000	108.044365	823.332886	42.729877	0.721695	0.000000	-0.548853	0.000000	0.000000	0.000000	0.000000	-2.680716	0.000000
2.817708	-0.026066	4.254988	-0.423057	0.000000	0.000000	0.000000	109.131432	824.270020	42.594780	0.720428	0.000000	-0.548803	0.000000	0.000000	0.000000	0.000000	-2.682774	0.000000
2.818750	-0.129304	4.362420	-0.412291	0.000000	0.000000	0.000000	110.230225	825.132507	42.462330	0.719163	0.000000	-0.548751	0.000000	0.000000	0.000000	0.000000	-2.683737	0.000000
2.819792	-0.247621	4.494416	-0.398483	0.000000	0.000000	0.000000	111.341911	825.917908	42.331589	0.717900	0.000000	-0.548698	0.000000	0.000000	0.000000	0.000000	-2.683641	0.000000
2.820833	-0.382288	4.654447	-0.382114	0.000000	0.000000	0.000000	112.467438	826.623840	42.201775	0.716639	0.000000	-0.548644	0.000000	0.000000	0.000000	0.000000	-2.682526	0.000000
2.821875	-0.534627	4.846462	-0.363842	0.000000	0.000000	0.000000	113.607468	827.248108	42.072281	0.715380	0.000000	-0.548588	0.000000	0.000000	0.000000	0.000000	-2.680433	0.000000
2.822917	-0.706000	5.074940	-0.344536	0.000000	0.000000	0.000000	114.762299	827.788757	41.942722	0.714123	0.000000	-0.548530	0.000000	0.000000	0.000000	0.000000	-2.677402	0.000000
2.823958	-0.897798	5.344946	-0.325302	0.000000	0.000000	0.000000	115.931808	828.244019	41.812950	0.712868	0.000000	-0.548471	0.000000	0.000000	0.000000	0.000000	-2.673476	0.000000
2.825000	-1.111422	5.662178	-0.307503	0.000000	0.000000	0.000000	117.115440	828.612549	41.683083	0.711615	0.000000	-0.548411	0.000000	0.000000	0.000000	0.000000	-2.668696	0.000000
2.826042	-1.348261	6.033017	-0.292763	0.000000	0.000000	0.000000	118.312225	828.893188	41.553516	0.710365	0.000000	-0.548350	0.000000	0.000000	0.000000	0.000000	-2.663104	0.000000
2.827083	-1.609661	6.464571	-0.282972	0.000000	0.000000	0.000000	119.520813	829.084900	41.424938	0.709117	0.000000	-0.548287	0.000000	0.000000	0.000000	0.000000	-2.656741	0.000000
2.828125	-1.896888	6.964729	-0.280267	0.000000	0.000000	0.000000	120.739548	829.186890	41.298332	0.707871	0.000000	-0.548223	0.000000	0.000000	0.000000	0.000000	-2.649647	0.000000
2.829167	-2.211086	7.542214	-0.287017	0.000000	0.000000	0.000000	121.966537	829.198608	41.174969	0.706628	0.000000	-0.548158	0.000000	0.000000	0.000000	0.000000	-2.641860	0.000000
2.830208	-2.553222	8.206639	-0.305785	0.000000	0.000000	0.000000	123.199783	829.119385	41.056385	0.705386	0.000000	-0.548092	0.000000	0.000000	0.000000	0.000000	-2.633418	0.000000
2.831250	-2.924033	8.968575	-0.339296	0.000000	0.000000	0.000000	124.437256	828.948547	40.944366	0.704146	0.000000	-0.548026	0.000000	0.000000	0.000000	0.000000	-2.624354	0.000000
2.832292	-3.323958	9.839615	-0.390388	0.000000	0.000000	0.000000	125.677017	828.685303	40.840900	0.702908	0.000000	-0.547958	0.000000	0.000000	0.000000	0.000000	-2.614702	0.000000
2.833333	-3.753078	10.832464	-0.461967	0.000000	0.000000	0.000000	126.917320	828.328918	40.748127	0.701672	0.000000	-0.547890	0.000000	0.000000	0.000000	0.000000	-2.604490	0.000000
2.834375	-4.211045	11.961018	-0.556952	0.000000	0.000000	0.000000	128.156677	827.878174	40.668282	0.700437	0.000000	-0.547822	0.000000	0.000000	0.000000	0.000000	-2.593746	0.000000
2.835417	-4.697013	13.240453	-0.678220	0.000000	0.000000	0.000000	129.393921	827.331970	40.603622	0.699203	0.000000	-0.547754	0.000000	0.000000	0.000000	0.000000	-2.582493	0.000000
2.836458	-5.209578	14.687329	-0.828556	0.000000	0.000000	0.000000	130.628250	826.688782	40.556335	0.697969	0.000000	-0.547685	0.000000	0.000000	0.000000	0.000000	-2.570751	0.000000
2.837500	-5.746715	16.319674	-1.010587	1.460824	0.000000	-0.505963	131.859207	825.946960	40.528492	0.696736	0.000000	-0.547617	-0.000000	5.454905	-0.000000	0.000000	-2.558536	0.000000
2.838542	-6.305733	18.157061	-1.226723	1.492344	0.000000	-0.516666	133.086670	825.104797	40.521923	0.695503	0.000000	-0.547548	-0.000000	5.481699	-0.000000	0.000000	-2.545861	0.000000
2.839583	-6.883231	20.220686	-1.479091	1.542100	0.000000	-0.534257	134.310806	824.160400	40.538174	0.694269	0.000000	-0.547481	-0.000000	5.462287	-0.000000	0.000000	-2.532736	0.000000
2.840625	-7.475082	22.533384	-1.769461	1.628508	0.000000	-0.565580	135.531952	823.111938	40.578415	0.693034	0.000000	-0.547414	-0.000000	5.396473	-0.000000	0.000000	-2.519166	0.000000
2.841667	-8.076424	25.119633	-2.099159	1.808668	0.000000	-0.631887	136.750580	821.957397	40.643383	0.691798	0.000000	-0.547348	-0.000000	5.284716	-0.000000	0.000000	-2.505155	0.000000
2.842708	-8.681681	28.005476	-2.468977	2.390927	0.000000	-0.847986	137.967133	820.695068	40.733345	0.690560	0.000000	-0.547283	-0.000000	5.128150	-0.000000	0.000000	-2.490700	0.000000
2.843750	-9.284609	31.218410	-2.879066	-9.977240	-0.000000	3.758192	139.181946	819.323181	40.848049	0.689319	0.000000	-0.547219	-0.000000	4.928599	-0.000000	0.000000	-2.475799	0.000000
2.844792	-9.878372	34.787167	-3.328814	0.338358	0.000000	-0.082406	140.395081	817.840210	40.986717	0.688075	0.000000	-0.547157	-0.000000	4.688576	-0.000000	0.000000	-2.460445	0.000000
2.845833	-10.455649	38.741440	-3.816717	0.782105	0.000000	-0.247080	141.606339	816.244812	41.148037	0.686828	0.000000	-0.547097	-0.000000	4.411259	-0.000000	0.000000	-2.444630	0.000000
2.846875	-11.008782	43.111488	-4.340244	0.937525	0.000000	-0.304429	142.815140	814.535767	41.330193	0.685577	0.000000	-0.547039	-0.000000	4.100456	-0.000000	0.000000	-2.428344	0.000000
2.847917	-11.529955	47.927704	-4.895686	1.016165	0.000000	-0.333225	144.020462	812.712219	41.530857	0.684321	0.000000	-0.546983	-0.000000	3.760538	-0.000000	0.000000	-2.411578	0.000000
2.848958	-12.011418	53.220062	-5.478020	1.063328	0.000000	-0.350332	145.220932	810.773315	41.747276	0.683059	0.000000	-0.546929	-0.000000	3.396365	-0.000000	0.000000	-2.394319	0.000000
2.850000	-12.445744	59.017517	-6.080772	1.094556	0.000000	-0.361536	146.414810	808.718567	41.976273	0.681791	0.000000	-0.546877	-0.000000	3.013198	-0.000000	0.000000	-2.376558	0.000000
2.851042	-12.826116	65.347321	-6.695905	1.116620	0.000000	-0.369354	147.600082	806.547485	42.214336	0.680517	0.000000	-0.546829	-0.000000	2.616595	-0.000000	0.000000	-2.358284	0.000000
2.852083	-13.146645	72.234367	-7.313733	1.132937	0.000000	-0.375059	148.774612	804.259766	42.457653	0.679236	0.000000	-0.546783	-0.000000	2.212307	-0.000000	0.000000	-2.339489	0.000000
2.853125	-13.402701	79.700432	-7.922871	1.145422	0.000000	-0.379359	149.936234	801.855286	42.702194	0.677948	0.000000	-0.546741	-0.000000	1.806175	-0.000000	0.000000	-2.320170	0.000000
2.854167	-13.591255	87.763474	-8.510235	1.155225	0.000000	-0.382683	151.082932	799.333923	42.943748	0.676651	0.000000	-0.546701	-0.000000	1.404019	-0.000000	0.000000	-2.300323	0.000000
2.855208	-13.711201	96.436966	-9.061104	1.163083	0.000000	-0.385303	152.213013	796.695496	43.178005	0.675346	0.000000	-0.546665	-0.000000	1.011542	-0.000000	0.000000	-2.279951	0.000000
2.856250	-13.763664	105.729271	-9.559244	1.169487	0.000000	-0.387400	153.325226	793.939941	43.400593	0.674033	0.000000	-0.546632	-0.000000	0.634229	-0.000000	0.000000	-2.259062	0.000000
2.857292	-13.752272	115.643059	-9.987102	1.174776	0.000000	-0.389100	154.418884	791.067078	43.607155	0.672710	0.000000	-0.546602	-0.000000	0.277260	-0.000000	0.000000	-2.237668	0.000000
2.858333	-13.683359	126.174881	-10.326082	1.179194	0.000000	-0.390493	155.494003	788.076843	43.793369	0.671377	0.000000	-0.546576	0.000000	-0.054569	0.000000	0.000000	-2.215788	0.000000
